<?xml version="1.0" encoding="utf-8"?>
<svg viewBox="0 0 500 500" xmlns="http://www.w3.org/2000/svg">
  <circle style="fill: rgb(255, 209, 92);" cx="254.902" cy="228.924" r="201.7" transform="matrix(0.950173, 0, 0, 0.910327, 12.93168, -7.572377)"/>
  <g transform="matrix(0.950173, 0, 0, 0.910327, 14.216752, 17.210062)" style="">
    <path style="fill: rgb(58, 124, 236);" d="M90.15,319.7L20.75,440l81-4.3l36.8,72.3l64.2-111.3C156.75,384.8,117.25,357.1,90.15,319.7z"/>
    <path style="fill: rgb(58, 124, 236);" d="M417.35,319.1c-26.9,37.5-66.4,65.3-112.3,77.4l64.4,111.5l36.8-72.3l81,4.3L417.35,319.1z"/>
  </g>
  <circle style="fill: rgb(248, 182, 76);" cx="254.902" cy="228.924" r="146.2" transform="matrix(0.950173, 0, 0, 0.910327, 12.93168, -7.572377)"/>
  <path style="fill: rgb(255, 255, 255);" d="M 350.34 186.44 C 354.616 182.434 352.24 175.425 346.349 174.606 L 291.524 166.959 C 289.149 166.595 287.153 165.229 286.108 163.135 L 261.594 115.525 C 258.933 110.336 251.237 110.336 248.576 115.525 L 224.157 163.135 C 223.112 165.138 221.021 166.595 218.741 166.959 L 163.916 174.606 C 158.025 175.425 155.649 182.434 159.925 186.44 L 199.547 223.49 C 201.258 225.129 202.018 227.404 201.638 229.589 L 192.326 281.842 C 191.281 287.486 197.552 291.856 202.873 289.125 L 251.902 264.455 C 253.992 263.362 256.558 263.362 258.648 264.455 L 307.677 289.125 C 312.998 291.765 319.174 287.486 318.224 281.842 L 308.817 229.589 C 308.437 227.313 309.197 225.038 310.908 223.49 L 350.34 186.44 Z"/>
  <g transform="matrix(0.950173, 0, 0, 0.910327, 14.216752, 17.210062)" style=""/>
  <g transform="matrix(0.950173, 0, 0, 0.910327, 14.216752, 17.210062)" style=""/>
  <g transform="matrix(0.950173, 0, 0, 0.910327, 14.216752, 17.210062)" style=""/>
  <g transform="matrix(0.950173, 0, 0, 0.910327, 14.216752, 17.210062)" style=""/>
  <g transform="matrix(0.950173, 0, 0, 0.910327, 14.216752, 17.210062)" style=""/>
  <g transform="matrix(0.950173, 0, 0, 0.910327, 14.216752, 17.210062)" style=""/>
  <g transform="matrix(0.950173, 0, 0, 0.910327, 14.216752, 17.210062)" style=""/>
  <g transform="matrix(0.950173, 0, 0, 0.910327, 14.216752, 17.210062)" style=""/>
  <g transform="matrix(0.950173, 0, 0, 0.910327, 14.216752, 17.210062)" style=""/>
  <g transform="matrix(0.950173, 0, 0, 0.910327, 14.216752, 17.210062)" style=""/>
  <g transform="matrix(0.950173, 0, 0, 0.910327, 14.216752, 17.210062)" style=""/>
  <g transform="matrix(0.950173, 0, 0, 0.910327, 14.216752, 17.210062)" style=""/>
  <g transform="matrix(0.950173, 0, 0, 0.910327, 14.216752, 17.210062)" style=""/>
  <g transform="matrix(0.950173, 0, 0, 0.910327, 14.216752, 17.210062)" style=""/>
  <g transform="matrix(0.950173, 0, 0, 0.910327, 14.216752, 17.210062)" style=""/>
</svg>