<?xml version="1.0" encoding="UTF-8" standalone="no"?>
<!DOCTYPE svg PUBLIC "-//W3C//DTD SVG 1.1//EN" "http://www.w3.org/Graphics/SVG/1.1/DTD/svg11.dtd">
<svg width="100%" height="100%" viewBox="0 0 662 994" version="1.1" xmlns="http://www.w3.org/2000/svg" xmlns:xlink="http://www.w3.org/1999/xlink" xml:space="preserve" xmlns:serif="http://www.serif.com/" style="fill-rule:evenodd;clip-rule:evenodd;stroke-linejoin:round;stroke-miterlimit:1.41421;">
    <g>
        <g id="XMLID_806_" transform="matrix(0.589844,0,0,0.589844,142,114.792)">
            <g id="XMLID_1434_" transform="matrix(1,0,0,1,0,84.7682)">
                <rect id="XMLID_1457_" x="275.645" y="68.263" width="68.415" height="39.477" style="fill:rgb(213,245,251);"/>
                <circle id="XMLID_1452_" cx="310.006" cy="299.743" r="192.003" style="fill:rgb(93,222,245);"/>
                <circle id="XMLID_2618_" cx="310.006" cy="299.743" r="145.131" style="fill:white;"/>
                <g id="XMLID_2592_" transform="matrix(0.959777,0,0,1,13.3172,3.41061e-13)">
                    <circle cx="310.006" cy="299.743" r="21.074" style="fill:rgb(255,131,142);"/>
                </g>
            </g>
            <g id="XMLID_386_" transform="matrix(1,0,0,1,0,84.7682)">
                <path id="XMLID_389_" d="M511.013,279.65C506.416,233.412 485.759,189.82 452.844,156.904C424.716,128.777 390.287,110.702 354.061,102.665L354.061,77.256C368.857,73.575 379.855,60.182 379.855,44.263C379.855,25.514 364.603,10.262 345.854,10.262L273.853,10.262C255.105,10.262 239.853,25.514 239.853,44.263C239.853,60.181 250.851,73.574 265.646,77.256L265.646,102.736C229.531,110.807 195.216,128.857 167.168,156.905C161.03,163.044 155.369,169.483 150.188,176.175C149.937,176.156 149.686,176.137 149.43,176.137L78.168,176.137C72.646,176.137 68.168,180.614 68.168,186.137C68.168,191.66 72.646,196.137 78.168,196.137L136.581,196.137C129.249,208.412 123.337,221.303 118.837,234.574L10,234.574C4.478,234.574 0,239.051 0,244.574C0,250.097 4.478,254.574 10,254.574L113.186,254.574C110.304,267.225 108.65,280.1 108.223,293.012L64.001,293.012C58.479,293.012 54.001,297.489 54.001,303.012C54.001,308.535 58.479,313.012 64.001,313.012L108.542,313.012C109.386,325.956 111.467,338.832 114.786,351.449L50.001,351.449C44.479,351.449 40.001,355.927 40.001,361.45C40.001,366.973 44.479,371.45 50.001,371.45L121.168,371.45C130.978,397.401 146.309,421.725 167.168,442.583C200.114,475.529 243.751,496.192 290.038,500.765C296.644,501.417 303.255,501.74 309.857,501.74C348.879,501.74 387.406,490.447 420.097,469.158C424.725,466.144 426.034,459.949 423.02,455.321C420.006,450.693 418.897,454.47 414.268,457.484C342.71,504.082 236.704,495.702 176.224,435.222C105.261,364.259 103.565,235.231 174.528,164.267C245.49,93.305 374.518,93.305 445.482,164.267C505.882,224.668 516.012,332.288 469.569,403.811C466.561,408.443 461.096,409.551 465.727,412.558C470.361,415.566 476.553,414.249 479.56,409.617C504.375,371.402 515.545,325.246 511.013,279.65ZM253.072,44.264C253.072,36.544 259.352,21.787 267.072,21.787L352.636,21.787C360.356,21.787 368.331,34.848 368.331,42.568C368.331,50.288 358.661,68.436 350.94,68.436L344.06,68.436L275.646,68.436L272.158,68.436C264.438,68.436 253.072,51.983 253.072,44.264ZM275.474,100.993L275.474,78.264L344.232,76.569L344.232,100.957C328.156,99.045 291.548,99.057 275.474,100.993Z" style="fill-rule:nonzero;"/>
                <g id="XMLID_1456_" transform="matrix(1,0,0,1.07064,1.7053e-13,-3.12667)">
                    <path d="M273.852,68.263L345.853,68.263C359.109,68.263 369.854,57.518 369.854,44.263C369.854,31.007 359.109,20.262 345.853,20.262L273.852,20.262C260.597,20.262 249.852,31.007 249.852,44.263C249.852,57.518 260.597,68.263 273.852,68.263Z" style="fill:rgb(255,116,128);fill-rule:nonzero;"/>
                </g>
                <path id="XMLID_391_" d="M445.777,425.507C443.137,425.507 440.567,426.577 438.708,428.437C436.838,430.297 435.777,432.877 435.777,435.507C435.777,438.137 436.838,440.717 438.708,442.577C440.567,444.447 443.138,445.507 445.777,445.507C448.407,445.507 450.977,444.447 452.847,442.577C454.707,440.717 455.777,438.137 455.777,435.507C455.777,432.877 454.708,430.297 452.847,428.437C450.977,426.577 448.406,425.507 445.777,425.507Z" style="fill-rule:nonzero;"/>
                <path id="XMLID_394_" d="M310.006,144.611C224.467,144.611 154.874,214.202 154.874,299.743C154.874,385.283 224.467,454.874 310.006,454.874C395.545,454.874 465.137,385.283 465.137,299.743C465.137,214.202 395.545,144.611 310.006,144.611ZM310.006,441.655C235.494,441.655 166.398,374.254 166.398,299.743C166.398,225.232 235.494,156.135 310.006,156.135C384.518,156.135 453.614,225.232 453.614,299.743C453.614,374.254 384.518,441.655 310.006,441.655Z" style="fill-rule:nonzero;"/>
                <path id="XMLID_397_" d="M373.263,222.343L323.732,271.873C319.59,269.825 314.931,268.668 310.006,268.668C305.08,268.668 300.422,269.825 296.28,271.873L274.112,249.706C270.206,245.801 263.876,245.801 259.969,249.706C256.064,253.611 256.064,259.943 259.969,263.848L282.136,286.015C280.087,290.158 278.931,294.817 278.931,299.742C278.931,316.876 292.871,330.816 310.006,330.816C327.141,330.816 341.08,316.876 341.08,299.742C341.08,294.817 339.923,290.158 337.875,286.015L385.952,237.939L387.405,236.486C391.31,232.581 391.31,226.249 387.405,222.343C383.5,218.438 377.17,218.438 373.263,222.343ZM310.006,310.817C303.9,310.817 298.932,305.849 298.932,299.743C298.932,293.637 303.9,288.669 310.006,288.669C316.112,288.669 322.775,293.637 322.775,299.743C322.775,305.849 316.112,310.817 310.006,310.817Z" style="fill-rule:nonzero;"/>
                <path id="XMLID_398_" d="M416.927,289.865L407.661,289.865C402.139,289.865 397.661,294.342 397.661,299.865C397.661,305.388 402.139,309.865 407.661,309.865L416.927,309.865C422.449,309.865 426.927,305.388 426.927,299.865C426.927,294.342 422.449,289.865 416.927,289.865Z" style="fill-rule:nonzero;"/>
                <path id="XMLID_399_" d="M212.349,289.621L203.085,289.621C197.563,289.621 193.085,294.098 193.085,299.621C193.085,305.144 197.563,309.621 203.085,309.621L212.349,309.621C217.871,309.621 222.349,305.144 222.349,299.621C222.349,294.098 217.871,289.621 212.349,289.621Z" style="fill-rule:nonzero;"/>
                <path id="XMLID_400_" d="M310.128,212.086C315.65,212.086 320.128,207.609 320.128,202.086L320.128,192.822C320.128,187.299 315.65,182.822 310.128,182.822C304.606,182.822 300.128,187.299 300.128,192.822L300.128,202.086C300.128,207.609 304.606,212.086 310.128,212.086Z" style="fill-rule:nonzero;"/>
                <path id="XMLID_424_" d="M309.884,387.399C304.362,387.399 299.884,391.876 299.884,397.399L299.884,406.663C299.884,412.186 304.362,416.664 309.884,416.664C315.406,416.664 319.884,412.186 319.884,406.663L319.884,397.399C319.884,391.876 315.406,387.399 309.884,387.399Z" style="fill-rule:nonzero;"/>
                <path id="XMLID_425_" d="M10,351.445C7.37,351.445 4.79,352.516 2.93,354.376C1.07,356.236 0,358.816 0,361.446C0,364.086 1.069,366.656 2.93,368.516C4.791,370.376 7.37,371.446 10,371.446C12.63,371.446 15.21,370.376 17.069,368.516C18.929,366.656 20,364.076 20,361.446C20,358.816 18.93,356.236 17.069,354.376C15.21,352.516 12.63,351.445 10,351.445Z" style="fill-rule:nonzero;"/>
            </g>
        </g>
        <g transform="matrix(0.542827,0,0,0.542827,4.55887,354.824)">
            <text x="58px" y="719px" style="font-family:'Ubuntu', sans-serif;font-size:95.795px;fill:rgb(52,60,74);">3<tspan x="108.675px 159.351px 178.127px 257.253px 278.136px 329.77px 369.141px 387.917px 439.934px 491.567px 538.219px 571.843px 618.495px 670.128px 704.327px 754.523px 804.72px 857.79px 876.566px 923.218px 956.842px 990.466px 1011.35px 1056.09px 1102.74px " y="719px 719px 719px 719px 719px 719px 719px 719px 719px 719px 719px 719px 719px 719px 719px 719px 719px 719px 719px 719px 719px 719px 719px 719px 719px ">0 mins guaranteed arrival</tspan></text>
        </g>
    </g>
</svg>
