<?xml version="1.0" encoding="iso-8859-1"?>
<!-- Generator: Adobe Illustrator 19.0.0, SVG Export Plug-In . SVG Version: 6.00 Build 0)  -->
<svg version="1.1" id="Capa_1" xmlns="http://www.w3.org/2000/svg" xmlns:xlink="http://www.w3.org/1999/xlink" x="0px" y="0px"
	 viewBox="0 0 416 416" style="enable-background:new 0 0 416 416;" xml:space="preserve">
<g>
	<g>
		<g>
			<path d="M341.019,100.357c-1.287-2.603-3.908-4.279-6.81-4.357h-48.094c-4.224,0-8.115,3.438-8.115,7.662V151h89.013
				L341.019,100.357z"/>
			<path d="M77.822,252.382c-18.672-0.001-33.809,15.136-33.81,33.808C44.011,304.862,59.148,319.999,77.82,320
				c18.664-0.02,33.789-15.145,33.81-33.809C111.63,267.519,96.494,252.383,77.822,252.382z"/>
			<path d="M0,211.139V263.8c0,4.227,3.862,7.2,8.086,7.2h22.148c6.584-20.77,25.798-34.935,47.586-35.082v-0.002
				c21.789,0.146,41.003,14.313,47.586,35.084H262v-68H8.086C3.683,203.194,0.165,206.734,0,211.139z"/>
			<path d="M343.215,252.382c-18.672-0.001-33.809,15.136-33.81,33.808s15.136,33.809,33.808,33.81
				c18.664-0.02,33.789-15.145,33.81-33.809C377.023,267.519,361.887,252.383,343.215,252.382z"/>
			<path d="M411.148,180.715L378.492,167H278v104h17.628c4.861-15.701,17.154-27.994,32.855-32.855
				c26.281-8.136,54.181,6.574,62.317,32.855h17.114c4.224,0,8.086-2.976,8.086-7.2v-76.25
				C415.906,184.503,413.994,181.809,411.148,180.715z"/>
		</g>
	</g>
</g>
<g>
</g>
<g>
</g>
<g>
</g>
<g>
</g>
<g>
</g>
<g>
</g>
<g>
</g>
<g>
</g>
<g>
</g>
<g>
</g>
<g>
</g>
<g>
</g>
<g>
</g>
<g>
</g>
<g>
</g>
</svg>
